<svg width="39" height="45" viewBox="0 0 39 45" fill="none" xmlns="http://www.w3.org/2000/svg">
<path d="M28.5139 41.0308L23.84 20.2301C23.7973 20.0411 23.5619 19.974 23.4265 20.113L0.0717843 44.1618C-0.134344 44.3752 0.144966 44.7033 0.386466 44.5326C5.81412 40.6771 18.2928 33.5773 28.1285 41.2784C28.3078 41.4187 28.5639 41.254 28.5139 41.032V41.0308Z" fill="#0B897B"/>
<path d="M9.68067 3.54929L14.3545 24.35C14.3972 24.5391 14.6326 24.6061 14.768 24.4671L38.124 0.418324C38.3301 0.204877 38.0508 -0.123222 37.8093 0.0475357C32.3817 3.903 19.9029 11.0029 10.0673 3.30169C9.88802 3.16142 9.63188 3.32608 9.68189 3.54807L9.68067 3.54929Z" fill="#17499E"/>
</svg>
