<svg width="439" height="432" viewBox="0 0 439 432" fill="none" xmlns="http://www.w3.org/2000/svg">
<g clip-path="url(#clip0_2756_9679)">
<path d="M278.139 169.869L273.842 182.865C272.409 187.197 268.173 189.754 263.248 189.257C254.163 188.09 244.564 184.634 235.728 181.006C231.987 178.638 229.26 173.636 230.692 169.305L235.161 157.071C228.443 152.165 222.146 145.56 218.14 138.44L205.161 141.357C200.58 142.387 196.077 140.191 194.283 135.782C190.697 126.963 188.466 117.038 187.933 107.533C187.668 102.781 190.627 98.1052 195.208 97.0756L208.187 94.1582C208.761 86.0087 211.797 78.1077 215.769 70.7986L206.495 61.6545C203.175 57.5883 203.672 52.6644 206.039 48.9241C212.302 41.1 219.67 34.6316 227.21 28.9266C231.449 26.3698 236.372 26.8673 239.692 30.9332L248.966 40.0775C256.258 36.8343 264.656 34.9467 272.634 34.7576L277.102 22.5246C278.363 17.4288 282.601 14.8722 287.525 15.3695C296.782 17.2991 306.209 19.9924 315.217 24.3841C318.957 26.7516 321.514 30.9892 320.254 36.0848L315.784 48.3181C322.501 53.2247 328.627 59.0662 332.633 66.1862L345.613 63.2688C350.193 62.2393 354.869 65.1986 356.662 69.6077C360.248 78.4264 362.307 87.5886 363.012 97.8564C363.278 102.609 360.146 106.521 355.566 107.55L342.587 110.468C342.013 118.617 339.147 127.282 335.176 134.591L344.45 143.735C347.598 147.037 347.273 152.725 344.905 156.466C338.472 163.526 331.275 170.758 323.563 175.7C319.325 178.256 314.401 177.759 311.252 174.456L301.807 164.549C294.516 167.792 286.118 169.679 278.139 169.869ZM259.788 127.475C294.54 142.922 320.582 101.779 291.157 77.915C256.233 61.7035 230.954 102.676 259.788 127.475ZM198.416 264.785L227.119 271.166C235.784 274.031 240.898 282.506 239.731 291.591C237.15 312.222 227.946 331.936 218.227 349.359C214.427 357.432 204.846 361.19 196.353 359.089L171.294 351.086C161.31 363.757 148.692 375.416 134.623 384.192L140.458 410.151C142.517 419.312 138.125 428.319 129.307 431.906C111.67 439.079 91.8198 443.541 72.0468 444.777C62.5417 445.308 54.718 439.047 52.6587 429.885L46.8238 403.926C29.5893 402.186 13.9591 396.877 -0.487546 389.698L-19.8827 406.89C-26.4878 413.187 -36.7562 413.891 -44.4086 408.392C-59.8847 396.632 -76.6391 382.753 -87.8005 365.211C-92.5707 358.262 -91.7476 347.65 -84.379 341.182L-61.93 323.303C-68.5877 307.956 -72.3629 291.16 -72.9129 274.441L-101.025 267.124C-110.453 264.432 -115.566 255.956 -114.4 246.871C-111.647 227.003 -102.443 207.29 -93.6599 189.274C-88.9249 181.794 -80.278 177.444 -70.8502 180.137L-45.792 188.14C-35.9789 174.705 -24.124 163.218 -9.2918 154.27L-14.9549 129.075C-17.0141 119.913 -12.6224 110.906 -4.56778 107.491C13.8331 100.147 33.6827 95.6854 53.4565 94.449C62.9614 93.9167 70.7853 100.179 72.8446 109.34L78.5076 134.535C94.9784 136.447 111.372 141.585 125.99 149.528L145.214 131.572C151.819 125.275 162.087 124.571 168.976 130.241C185.387 142.594 202.142 156.473 213.132 173.252C218.074 180.964 217.079 190.812 210.473 197.108L187.433 215.922C194.091 231.269 197.866 248.065 198.416 264.785ZM111.929 301.068C143.76 232.155 62.2361 179.899 13.5735 238.157C-19.0212 307.242 63.2663 359.327 111.929 301.068ZM329.45 398.148L325.153 411.145C323.72 415.477 319.483 418.034 314.558 417.536C305.474 416.37 295.875 412.913 286.867 408.522C283.298 406.918 280.57 401.916 282.003 397.585L286.3 384.588C279.582 379.681 273.457 373.84 269.451 366.719L256.471 369.636C251.891 370.666 247.387 368.47 245.594 364.062C242.008 355.243 239.777 345.318 239.244 335.813C238.978 331.06 241.937 326.385 246.518 325.356L259.498 322.438C260.072 314.288 263.108 306.387 267.08 299.078L257.806 289.934C254.486 285.868 254.983 280.944 257.35 277.204C263.613 269.38 270.981 262.911 278.521 257.207C282.759 254.649 287.683 255.147 291.003 259.212L300.276 268.358C307.569 265.114 315.967 263.226 323.945 263.038L328.413 250.804C329.674 245.709 333.912 243.151 338.836 243.649C348.093 245.579 357.52 248.272 366.528 252.664C370.268 255.031 372.825 259.269 371.564 264.364L367.095 276.598C373.812 281.504 379.938 287.345 383.944 294.466L396.924 291.549C401.504 290.519 406.179 293.478 407.973 297.887C411.558 306.706 413.618 315.868 414.323 326.136C414.588 330.888 411.457 334.8 406.877 335.83L393.897 338.747C393.323 346.897 390.286 354.798 386.315 362.107L395.761 372.015C398.909 375.317 398.583 381.005 396.044 383.982C389.782 391.806 382.586 399.037 374.873 403.979C370.636 406.536 365.712 406.038 362.563 402.736L353.118 392.828C345.826 396.072 337.429 397.959 329.45 398.148ZM310.927 354.991C345.85 371.202 371.893 330.059 342.468 306.195C307.544 289.983 282.265 330.955 310.927 354.991Z" fill="white"/>
</g>
<defs>
<clipPath id="clip0_2756_9679">
<rect width="509.163" height="409" fill="white" transform="translate(-148 111.66) rotate(-12.6679)"/>
</clipPath>
</defs>
</svg>
