<svg width="64" height="64" viewBox="0 0 64 64" fill="none" xmlns="http://www.w3.org/2000/svg">
<rect width="64" height="64" rx="12" fill="#0B897B"/>
<g clip-path="url(#clip0_2756_9559)">
<path d="M29.8122 18.8116C30.4685 17.4991 32.3278 17.5538 32.9294 18.8116L36.5388 26.0851L44.5231 27.2335C45.945 27.4523 46.4919 29.2022 45.4528 30.2413L39.7106 35.8741L41.0778 43.8038C41.2966 45.2257 39.7653 46.3194 38.5075 45.6632L31.3981 41.8897L24.2341 45.6632C22.9763 46.3194 21.4451 45.2257 21.6638 43.8038L23.031 35.8741L17.2888 30.2413C16.2497 29.2022 16.7966 27.4523 18.2185 27.2335L26.2575 26.0851L29.8122 18.8116Z" fill="white"/>
</g>
<defs>
<clipPath id="clip0_2756_9559">
<rect width="31" height="29" fill="white" transform="translate(16.25 17.5)"/>
</clipPath>
</defs>
</svg>
