<svg width="405" height="390" viewBox="0 0 405 390" fill="none" xmlns="http://www.w3.org/2000/svg">
<g clip-path="url(#clip0_2756_9673)">
<path d="M172.484 110.45C154.203 105.117 138.968 91.4062 136.684 73.8867C133.637 49.5117 152.68 28.9453 177.816 25.8984V12.1875C177.816 6.09375 183.149 0 190.765 0H203.715C211.332 0 217.426 6.09375 217.426 12.1875V25.8984C226.566 27.4219 235.707 30.4688 243.324 35.0391C245.609 36.5625 247.895 38.8477 247.895 42.6562C247.895 44.1797 247.133 45.7031 246.371 46.4648C245.609 47.2266 245.609 47.9883 244.848 48.75L230.375 62.4609C227.328 64.7461 222.758 65.5078 218.949 63.9844C215.902 62.4609 212.855 61.6992 209.809 61.6992H183.149C179.34 61.6992 176.293 64.7461 176.293 68.5547C176.293 71.6016 177.816 73.8867 180.863 74.6484L221.996 85.3125C241.039 90.6441 255.512 104.356 257.796 121.875C260.843 146.25 241.801 166.816 217.426 169.863V182.812C217.426 189.668 211.332 195 203.715 195H190.765C183.149 195 177.055 189.668 177.055 182.812V169.863C167.914 169.102 158.774 165.293 151.156 160.722C148.871 159.2 146.586 156.914 146.586 153.106C146.586 151.582 147.348 150.059 148.109 149.297C148.871 148.535 148.871 147.773 149.633 147.012L164.105 133.3C167.152 131.016 171.723 130.253 176.293 131.778C178.578 133.3 181.625 134.062 184.671 134.062H211.332C215.14 134.062 218.187 131.016 218.187 127.207C218.187 124.16 216.664 121.875 213.618 121.113L172.484 110.45ZM396.43 250.606C401 254.414 404.809 261.269 404.809 268.125C404.809 276.504 401 283.359 395.668 287.168L279.887 379.336C271.508 386.191 260.843 390 249.418 390H-21.7539C-28.6094 390 -33.9414 384.668 -33.9414 377.812V304.688C-33.9414 298.594 -28.6094 292.5 -21.7539 292.5H20.1406L55.1801 264.316C71.1758 251.367 90.2183 244.512 112.309 243.75H234.184C247.133 243.75 257.796 255.175 258.559 268.125C258.559 268.125 258.559 268.125 258.559 268.887C258.559 269.648 257.796 271.172 257.796 272.695C256.274 284.883 244.848 292.5 232.66 292.5H173.246C166.39 292.5 161.059 298.594 161.059 304.688C161.059 311.543 166.39 316.875 173.246 316.875H263.129C274.555 316.875 285.218 313.066 293.598 306.211L363.676 250.606C373.578 242.988 387.289 242.227 396.43 250.606Z" fill="#0B897B"/>
</g>
<defs>
<clipPath id="clip0_2756_9673">
<rect width="438.75" height="390" fill="white" transform="translate(-33.9414)"/>
</clipPath>
</defs>
</svg>
