<svg width="64" height="64" viewBox="0 0 64 64" fill="none" xmlns="http://www.w3.org/2000/svg">
<rect width="64" height="64" rx="12" fill="#0B897B"/>
<g clip-path="url(#clip0_2756_9547)">
<path d="M31.9103 18C39.5945 18 45.8205 24.226 45.8205 31.9103C45.8205 39.5945 39.5945 45.8205 31.9103 45.8205C24.226 45.8205 18 39.5945 18 31.9103C18 24.226 24.226 18 31.9103 18ZM37.0705 35.5561C37.1827 35.4439 37.2949 35.2196 37.2949 34.9952C37.2949 34.7147 37.1266 34.4904 36.9583 34.3221L33.7051 31.9103V23.8333C33.7051 23.3846 33.2564 22.9359 32.8077 22.9359H31.0128C30.508 22.9359 30.1154 23.3846 30.1154 23.8333V32.5833C30.1154 33.3125 30.3958 33.9295 30.9567 34.3221L34.7147 37.1266C34.8269 37.2388 35.0513 37.3509 35.2196 37.3509C35.5561 37.3509 35.7804 37.1827 35.9487 36.9583L37.0705 35.5561Z" fill="white"/>
</g>
<defs>
<clipPath id="clip0_2756_9547">
<rect width="28" height="28" fill="white" transform="translate(18 18)"/>
</clipPath>
</defs>
</svg>
