<svg width="64" height="64" viewBox="0 0 64 64" fill="none" xmlns="http://www.w3.org/2000/svg">
<rect width="64" height="64" rx="12" fill="#0B897B"/>
<g clip-path="url(#clip0_2756_9553)">
<path d="M45.125 38.5098C45.5625 38.5098 46 38.9473 46 39.3848V41.1348C46 41.627 45.5625 42.0098 45.125 42.0098H19.75C18.7656 42.0098 18 41.2442 18 40.2598V21.8848C18 21.4473 18.3828 21.0098 18.875 21.0098H20.625C21.0625 21.0098 21.5 21.4473 21.5 21.8848V38.5098H45.125ZM43.375 22.7598C43.8125 22.7598 44.25 23.1973 44.1953 23.6348V30.1426C44.1953 31.291 42.8281 31.8926 42.0078 31.0723L40.2031 29.2676L34.9531 34.5176C34.2969 35.2286 33.1484 35.2286 32.4922 34.5176L28.5 30.5254L25.9297 33.041C25.6016 33.3692 25.0547 33.3692 24.7266 33.041L23.4688 31.7832C23.1406 31.4551 23.1406 30.9082 23.4688 30.5801L27.2422 26.8066C27.8984 26.0957 29.0469 26.0957 29.7031 26.8066L33.75 30.7988L37.7422 26.8066L35.9375 25.002C35.1172 24.1816 35.7188 22.7598 36.8672 22.7598H43.375Z" fill="white"/>
</g>
<defs>
<clipPath id="clip0_2756_9553">
<rect width="28" height="21" fill="white" transform="translate(18 21.0098)"/>
</clipPath>
</defs>
</svg>
