<svg width="16" height="16" viewBox="0 0 16 16" fill="none" xmlns="http://www.w3.org/2000/svg">
<path d="M15.7812 0.625C16 1.625 16 2.40625 15.9687 3.1875C15.9687 6.40625 14.25 8.34375 11.9687 9.78125V13.0625C11.9687 13.5625 11.625 14.1562 11.1562 14.4062L8.06249 15.9375C7.96874 15.9688 7.84374 16 7.74999 16C7.31249 16 6.99999 15.6875 6.96874 15.25V12.0312L6.28124 12.7188C5.87499 13.125 5.21874 13.0625 4.87499 12.7188L3.28124 11.125C2.87499 10.7188 2.90624 10.0625 3.28124 9.71875L3.96874 9H0.749994C0.312494 9 -5.72205e-06 8.6875 -5.72205e-06 8.25C-5.72205e-06 8.15625 0.0312443 8.03125 0.0624943 7.9375L1.59374 4.84375C1.84374 4.375 2.43749 4.03125 2.93749 4H6.21874C7.65624 1.75 9.59374 0 12.8125 0C13.5937 0 14.375 0 15.375 0.21875C15.5625 0.28125 15.7187 0.4375 15.7812 0.625ZM12 5.25C12.6875 5.25 13.25 4.71875 13.25 4C13.25 3.3125 12.6875 2.75 12 2.75C11.2812 2.75 10.75 3.3125 10.75 4C10.75 4.71875 11.2812 5.25 12 5.25Z" fill="white"/>
</svg>
