<svg width="50" height="24" viewBox="0 0 50 24" fill="none" xmlns="http://www.w3.org/2000/svg">
<g clip-path="url(#clip0_2756_9602)">
<g clip-path="url(#clip1_2756_9602)">
<mask id="mask0_2756_9602" style="mask-type:luminance" maskUnits="userSpaceOnUse" x="13" y="0" width="24" height="24">
<path d="M37 0H13V24H37V0Z" fill="white"/>
</mask>
<g mask="url(#mask0_2756_9602)">
<path d="M37 12C37 18.6275 31.6275 24 25 24C18.3725 24 13 18.6275 13 12C13 5.37246 18.3725 0 25 0C31.6275 0 37 5.37246 37 12Z" fill="#121214"/>
<path d="M28.2553 5.70508H21.7438C20.0659 5.70508 18.7051 7.06586 18.7051 8.74376V15.2553C18.7051 16.9332 20.0659 18.294 21.7438 18.294H28.2553C29.9332 18.294 31.294 16.9332 31.294 15.2553V8.74376C31.294 7.06586 29.9332 5.70508 28.2553 5.70508ZM30.2086 15.0385C30.2086 16.2368 29.2362 17.2092 28.0378 17.2092H21.9606C20.7622 17.2092 19.7898 16.2368 19.7898 15.0385V8.96119C19.7898 7.76284 20.7622 6.79044 21.9606 6.79044H28.0378C29.2362 6.79044 30.2086 7.76284 30.2086 8.96119V15.0385Z" fill="white"/>
<path d="M25.0055 8.74219C23.2086 8.74219 21.75 10.2008 21.75 11.9977C21.75 13.7946 23.2086 15.2532 25.0055 15.2532C26.8023 15.2532 28.261 13.7946 28.261 11.9977C28.261 10.2008 26.8023 8.74219 25.0055 8.74219ZM25.0055 14.1684C23.8096 14.1684 22.8347 13.1936 22.8347 11.9977C22.8347 10.8018 23.8096 9.82691 25.0055 9.82691C26.2014 9.82691 27.1762 10.8018 27.1762 11.9977C27.1762 13.1936 26.2014 14.1684 25.0055 14.1684Z" fill="white"/>
<path d="M28.4792 9.17715C28.1204 9.17715 27.8281 8.88487 27.8281 8.52607C27.8281 8.16727 28.1204 7.875 28.4792 7.875C28.838 7.875 29.1303 8.16727 29.1303 8.52607C29.1303 8.88487 28.838 9.17715 28.4792 9.17715Z" fill="white"/>
</g>
</g>
</g>
<defs>
<clipPath id="clip0_2756_9602">
<rect width="50" height="24" fill="white"/>
</clipPath>
<clipPath id="clip1_2756_9602">
<rect width="24" height="24" fill="white" transform="translate(13)"/>
</clipPath>
</defs>
</svg>
