<svg width="442" height="458" viewBox="0 0 442 458" fill="none" xmlns="http://www.w3.org/2000/svg">
<g clip-path="url(#clip0_2756_9684)">
<g clip-path="url(#clip1_2756_9684)">
<path d="M313.363 39.1251L326.026 128.974L266.127 137.416L253.464 47.5673C251.221 31.6565 262.346 15.7708 279.192 13.3965C295.104 11.154 311.121 23.2143 313.363 39.1251ZM375.172 152.592C382.659 151.537 391.202 157.969 392.257 165.457L396.478 195.406C397.666 203.83 391.102 211.437 383.614 212.492L368.639 214.602L372.86 244.552C382.213 317.687 339.179 384.841 273.771 408.378L286.83 501.034L226.931 509.476L213.872 416.82C143.57 412.41 83.652 359.765 73.3632 286.763L69.1421 256.813L54.1672 258.924C45.7439 260.111 38.2691 254.483 37.0818 246.059L32.8607 216.11C31.8055 208.622 37.3017 200.211 45.725 199.024L375.172 152.592ZM133.665 64.4516L146.328 154.301L86.4285 162.743L73.7653 72.8938C71.5228 56.983 82.6472 41.0973 99.4939 38.723C115.405 36.4805 131.422 48.5408 133.665 64.4516Z" fill="white"/>
</g>
</g>
<defs>
<clipPath id="clip0_2756_9684">
<rect width="377.955" height="483.931" fill="white" transform="translate(0 52.7476) rotate(-8.02237)"/>
</clipPath>
<clipPath id="clip1_2756_9684">
<rect width="362.949" height="483.931" fill="white" transform="translate(9.64478 51.3862) rotate(-8.02237)"/>
</clipPath>
</defs>
</svg>
