<svg width="50" height="24" viewBox="0 0 50 24" fill="none" xmlns="http://www.w3.org/2000/svg">
<g clip-path="url(#clip0_2756_9613)">
<g clip-path="url(#clip1_2756_9613)">
<mask id="mask0_2756_9613" style="mask-type:luminance" maskUnits="userSpaceOnUse" x="13" y="0" width="24" height="24">
<path d="M37 0H13V24H37V0Z" fill="white"/>
</mask>
<g mask="url(#mask0_2756_9613)">
<path d="M37 12.0003C37 18.628 31.6274 24.0006 24.9997 24.0006C18.3726 24 13 18.6274 13 12.0003C13 5.3726 18.3726 0 25.0003 0C31.628 0 37 5.3726 37 12.0003Z" fill="#121214"/>
<path d="M20.7507 8.7905C21.6044 8.7905 22.2964 8.09848 22.2964 7.24486C22.2964 6.39122 21.6044 5.69922 20.7507 5.69922C19.8971 5.69922 19.2051 6.39122 19.2051 7.24486C19.2051 8.09848 19.8971 8.7905 20.7507 8.7905Z" fill="white"/>
<path d="M21.9216 9.82227H19.5763C19.5126 9.82227 19.4609 9.87387 19.4609 9.93762V17.4345C19.4609 17.4982 19.5126 17.5498 19.5763 17.5498H21.9216C21.9854 17.5498 22.037 17.4982 22.037 17.4345V9.93762C22.037 9.87387 21.9854 9.82227 21.9216 9.82227Z" fill="white"/>
<path d="M30.796 12.6557V17.0347C30.796 17.318 30.5641 17.5499 30.2808 17.5499H28.7351C28.4519 17.5499 28.22 17.318 28.22 17.0347V13.4282C28.22 12.7173 27.6431 12.1405 26.9322 12.1405C26.2213 12.1405 25.6445 12.7173 25.6445 13.4282V17.0347C25.6445 17.318 25.4126 17.5499 25.1293 17.5499H23.5836C23.3003 17.5499 23.0684 17.318 23.0684 17.0347V10.337C23.0684 10.0537 23.3003 9.8217 23.5836 9.8217H25.1293C25.4126 9.8217 25.6445 10.0537 25.6445 10.337V10.6667C26.1597 9.9993 27.0125 9.56445 27.9626 9.56445C29.3844 9.56445 30.796 10.5949 30.796 12.6557Z" fill="white"/>
</g>
</g>
</g>
<defs>
<clipPath id="clip0_2756_9613">
<rect width="50" height="24" fill="white"/>
</clipPath>
<clipPath id="clip1_2756_9613">
<rect width="24" height="24" fill="white" transform="translate(13)"/>
</clipPath>
</defs>
</svg>
