<svg width="1920" height="64" viewBox="0 0 1920 64" fill="none" xmlns="http://www.w3.org/2000/svg">
<path d="M32.6665 58.9043L25.9567 29.0428C25.8954 28.7714 25.5574 28.6751 25.3631 28.8747L-8.16501 63.3991C-8.46093 63.7056 -8.05995 64.1766 -7.71326 63.9314C0.07868 58.3965 17.9931 48.204 32.1132 59.2598C32.3706 59.4612 32.7383 59.2248 32.6665 58.9061V58.9043Z" fill="#0B897B"/>
<path d="M5.6292 5.09535L12.339 34.9569C12.4003 35.2283 12.7382 35.3246 12.9326 35.125L46.4624 0.600545C46.7584 0.294121 46.3574 -0.176897 46.0107 0.0682422C38.2187 5.60314 20.3043 15.7957 6.18426 4.7399C5.92686 4.53854 5.55916 4.77492 5.63095 5.0936L5.6292 5.09535Z" fill="#17499E"/>
<path d="M95.3799 58.9043L88.67 29.0428C88.6088 28.7714 88.2708 28.6751 88.0765 28.8747L54.5484 63.3991C54.2524 63.7056 54.6534 64.1766 55.0001 63.9314C62.7921 58.3965 80.7065 48.204 94.8265 59.2598C95.0839 59.4612 95.4516 59.2248 95.3799 58.9061V58.9043Z" fill="#0B897B"/>
<path d="M68.3428 5.09535L75.0526 34.9569C75.1139 35.2283 75.4519 35.3246 75.6462 35.125L109.176 0.600545C109.472 0.294121 109.071 -0.176897 108.724 0.0682422C100.932 5.60314 83.0179 15.7957 68.8979 4.7399C68.6405 4.53854 68.2728 4.77492 68.3446 5.0936L68.3428 5.09535Z" fill="#17499E"/>
<path d="M158.093 58.9043L151.383 29.0428C151.322 28.7714 150.984 28.6751 150.79 28.8747L117.262 63.3991C116.966 63.7056 117.367 64.1766 117.714 63.9314C125.505 58.3965 143.42 48.204 157.54 59.2598C157.797 59.4612 158.165 59.2248 158.093 58.9061V58.9043Z" fill="#0B897B"/>
<path d="M131.056 5.09535L137.766 34.9569C137.827 35.2283 138.165 35.3246 138.359 35.125L171.889 0.600545C172.185 0.294121 171.784 -0.176897 171.437 0.0682422C163.646 5.60314 145.731 15.7957 131.611 4.7399C131.354 4.53854 130.986 4.77492 131.058 5.0936L131.056 5.09535Z" fill="#17499E"/>
<path d="M220.807 58.9043L214.097 29.0428C214.036 28.7714 213.698 28.6751 213.503 28.8747L179.975 63.3991C179.679 63.7056 180.08 64.1766 180.427 63.9314C188.219 58.3965 206.133 48.204 220.253 59.2598C220.511 59.4612 220.878 59.2248 220.807 58.9061V58.9043Z" fill="#0B897B"/>
<path d="M193.77 5.09535L200.48 34.9569C200.541 35.2283 200.879 35.3246 201.073 35.125L234.603 0.600545C234.899 0.294121 234.498 -0.176897 234.151 0.0682422C226.359 5.60314 208.445 15.7957 194.325 4.7399C194.067 4.53854 193.7 4.77492 193.772 5.0936L193.77 5.09535Z" fill="#17499E"/>
<path d="M283.52 58.9043L276.81 29.0428C276.749 28.7714 276.411 28.6751 276.216 28.8747L242.688 63.3991C242.392 63.7056 242.793 64.1766 243.14 63.9314C250.932 58.3965 268.846 48.204 282.966 59.2598C283.224 59.4612 283.592 59.2248 283.52 58.9061V58.9043Z" fill="#0B897B"/>
<path d="M256.483 5.09535L263.193 34.9569C263.254 35.2283 263.592 35.3246 263.786 35.125L297.316 0.600545C297.612 0.294121 297.211 -0.176897 296.864 0.0682422C289.072 5.60314 271.158 15.7957 257.038 4.7399C256.78 4.53854 256.413 4.77492 256.484 5.0936L256.483 5.09535Z" fill="#17499E"/>
<path d="M346.233 58.9043L339.523 29.0428C339.462 28.7714 339.124 28.6751 338.93 28.8747L305.402 63.3991C305.106 63.7056 305.507 64.1766 305.853 63.9314C313.645 58.3965 331.56 48.204 345.68 59.2598C345.937 59.4612 346.305 59.2248 346.233 58.9061V58.9043Z" fill="#0B897B"/>
<path d="M319.196 5.09535L325.906 34.9569C325.967 35.2283 326.305 35.3246 326.499 35.125L360.029 0.600545C360.325 0.294121 359.924 -0.176897 359.577 0.0682422C351.785 5.60314 333.871 15.7957 319.751 4.7399C319.494 4.53854 319.126 4.77492 319.198 5.0936L319.196 5.09535Z" fill="#17499E"/>
<path d="M408.946 58.9043L402.236 29.0428C402.175 28.7714 401.837 28.6751 401.643 28.8747L368.115 63.3991C367.819 63.7056 368.22 64.1766 368.567 63.9314C376.358 58.3965 394.273 48.204 408.393 59.2598C408.65 59.4612 409.018 59.2248 408.946 58.9061V58.9043Z" fill="#0B897B"/>
<path d="M381.909 5.09535L388.619 34.9569C388.68 35.2283 389.018 35.3246 389.213 35.125L422.742 0.600545C423.038 0.294121 422.637 -0.176897 422.291 0.0682422C414.499 5.60314 396.584 15.7957 382.464 4.7399C382.207 4.53854 381.839 4.77492 381.911 5.0936L381.909 5.09535Z" fill="#17499E"/>
<path d="M471.66 58.9043L464.95 29.0428C464.889 28.7714 464.551 28.6751 464.356 28.8747L430.828 63.3991C430.532 63.7056 430.933 64.1766 431.28 63.9314C439.072 58.3965 456.986 48.204 471.106 59.2598C471.364 59.4612 471.731 59.2248 471.66 58.9061V58.9043Z" fill="#0B897B"/>
<path d="M444.623 5.09535L451.332 34.9569C451.394 35.2283 451.732 35.3246 451.926 35.125L485.456 0.600545C485.752 0.294121 485.351 -0.176897 485.004 0.0682422C477.212 5.60314 459.298 15.7957 445.178 4.7399C444.92 4.53854 444.553 4.77492 444.624 5.0936L444.623 5.09535Z" fill="#17499E"/>
<path d="M534.373 58.9043L527.663 29.0428C527.602 28.7714 527.264 28.6751 527.07 28.8747L493.542 63.3991C493.246 63.7056 493.647 64.1766 493.993 63.9314C501.785 58.3965 519.7 48.204 533.82 59.2598C534.077 59.4612 534.445 59.2248 534.373 58.9061V58.9043Z" fill="#0B897B"/>
<path d="M507.336 5.09535L514.046 34.9569C514.107 35.2283 514.445 35.3246 514.639 35.125L548.169 0.600545C548.465 0.294121 548.064 -0.176897 547.717 0.0682422C539.925 5.60314 522.011 15.7957 507.891 4.7399C507.633 4.53854 507.266 4.77492 507.337 5.0936L507.336 5.09535Z" fill="#17499E"/>
<path d="M597.086 58.9043L590.376 29.0428C590.315 28.7714 589.977 28.6751 589.783 28.8747L556.255 63.3991C555.959 63.7056 556.36 64.1766 556.706 63.9314C564.498 58.3965 582.413 48.204 596.533 59.2598C596.79 59.4612 597.158 59.2248 597.086 58.9061V58.9043Z" fill="#0B897B"/>
<path d="M570.049 5.09535L576.759 34.9569C576.82 35.2283 577.158 35.3246 577.352 35.125L610.882 0.600545C611.178 0.294121 610.777 -0.176897 610.43 0.0682422C602.638 5.60314 584.724 15.7957 570.604 4.7399C570.347 4.53854 569.979 4.77492 570.051 5.0936L570.049 5.09535Z" fill="#17499E"/>
<path d="M659.799 58.9043L653.089 29.0428C653.028 28.7714 652.69 28.6751 652.495 28.8747L618.967 63.3991C618.671 63.7056 619.072 64.1766 619.419 63.9314C627.211 58.3965 645.125 48.204 659.245 59.2598C659.503 59.4612 659.871 59.2248 659.799 58.9061V58.9043Z" fill="#0B897B"/>
<path d="M632.761 5.09535L639.471 34.9569C639.532 35.2283 639.87 35.3246 640.065 35.125L673.595 0.600545C673.89 0.294121 673.489 -0.176897 673.143 0.0682422C665.351 5.60314 647.436 15.7957 633.316 4.7399C633.059 4.53854 632.691 4.77492 632.763 5.0936L632.761 5.09535Z" fill="#17499E"/>
<path d="M722.512 58.9043L715.802 29.0428C715.741 28.7714 715.403 28.6751 715.208 28.8747L681.68 63.3991C681.384 63.7056 681.785 64.1766 682.132 63.9314C689.924 58.3965 707.838 48.204 721.958 59.2598C722.216 59.4612 722.583 59.2248 722.512 58.9061V58.9043Z" fill="#0B897B"/>
<path d="M695.474 5.09535L702.184 34.9569C702.246 35.2283 702.583 35.3246 702.778 35.125L736.308 0.600545C736.604 0.294121 736.203 -0.176897 735.856 0.0682422C728.064 5.60314 710.15 15.7957 696.029 4.7399C695.772 4.53854 695.404 4.77492 695.476 5.0936L695.474 5.09535Z" fill="#17499E"/>
<path d="M785.225 58.9043L778.515 29.0428C778.454 28.7714 778.116 28.6751 777.922 28.8747L744.394 63.3991C744.098 63.7056 744.499 64.1766 744.845 63.9314C752.637 58.3965 770.552 48.204 784.672 59.2598C784.929 59.4612 785.297 59.2248 785.225 58.9061V58.9043Z" fill="#0B897B"/>
<path d="M758.188 5.09535L764.898 34.9569C764.959 35.2283 765.297 35.3246 765.491 35.125L799.021 0.600545C799.317 0.294121 798.916 -0.176897 798.57 0.0682422C790.778 5.60314 772.863 15.7957 758.743 4.7399C758.486 4.53854 758.118 4.77492 758.19 5.0936L758.188 5.09535Z" fill="#17499E"/>
<path d="M847.938 58.9043L841.228 29.0428C841.167 28.7714 840.829 28.6751 840.635 28.8747L807.107 63.3991C806.811 63.7056 807.212 64.1766 807.558 63.9314C815.35 58.3965 833.265 48.204 847.385 59.2598C847.642 59.4612 848.01 59.2248 847.938 58.9061V58.9043Z" fill="#0B897B"/>
<path d="M820.901 5.09535L827.611 34.9569C827.672 35.2283 828.01 35.3246 828.205 35.125L861.734 0.600545C862.03 0.294121 861.629 -0.176897 861.283 0.0682422C853.491 5.60314 835.576 15.7957 821.456 4.7399C821.199 4.53854 820.831 4.77492 820.903 5.0936L820.901 5.09535Z" fill="#17499E"/>
<path d="M910.651 58.9043L903.942 29.0428C903.88 28.7714 903.542 28.6751 903.348 28.8747L869.82 63.3991C869.524 63.7056 869.925 64.1766 870.272 63.9314C878.064 58.3965 895.978 48.204 910.098 59.2598C910.355 59.4612 910.723 59.2248 910.651 58.9061V58.9043Z" fill="#0B897B"/>
<path d="M883.614 5.09535L890.324 34.9569C890.385 35.2283 890.723 35.3246 890.918 35.125L924.448 0.600545C924.743 0.294121 924.342 -0.176897 923.996 0.0682422C916.204 5.60314 898.289 15.7957 884.169 4.7399C883.912 4.53854 883.544 4.77492 883.616 5.0936L883.614 5.09535Z" fill="#17499E"/>
<path d="M973.365 58.9043L966.655 29.0428C966.594 28.7714 966.256 28.6751 966.061 28.8747L932.533 63.3991C932.237 63.7056 932.638 64.1766 932.985 63.9314C940.777 58.3965 958.691 48.204 972.811 59.2598C973.069 59.4612 973.437 59.2248 973.365 58.9061V58.9043Z" fill="#0B897B"/>
<path d="M946.328 5.09535L953.038 34.9569C953.099 35.2283 953.437 35.3246 953.631 35.125L987.161 0.600545C987.457 0.294121 987.056 -0.176897 986.709 0.0682422C978.917 5.60314 961.003 15.7957 946.883 4.7399C946.625 4.53854 946.258 4.77492 946.329 5.0936L946.328 5.09535Z" fill="#17499E"/>
<path d="M1036.08 58.9043L1029.37 29.0428C1029.31 28.7714 1028.97 28.6751 1028.77 28.8747L995.247 63.3991C994.951 63.7056 995.352 64.1766 995.698 63.9314C1003.49 58.3965 1021.4 48.204 1035.52 59.2598C1035.78 59.4612 1036.15 59.2248 1036.08 58.9061V58.9043Z" fill="#0B897B"/>
<path d="M1009.04 5.09535L1015.75 34.9569C1015.81 35.2283 1016.15 35.3246 1016.34 35.125L1049.87 0.600545C1050.17 0.294121 1049.77 -0.176897 1049.42 0.0682422C1041.63 5.60314 1023.72 15.7957 1009.6 4.7399C1009.34 4.53854 1008.97 4.77492 1009.04 5.0936L1009.04 5.09535Z" fill="#17499E"/>
<path d="M1098.79 58.9043L1092.08 29.0428C1092.02 28.7714 1091.68 28.6751 1091.49 28.8747L1057.96 63.3991C1057.66 63.7056 1058.06 64.1766 1058.41 63.9314C1066.2 58.3965 1084.12 48.204 1098.24 59.2598C1098.5 59.4612 1098.86 59.2248 1098.79 58.9061V58.9043Z" fill="#0B897B"/>
<path d="M1079.18 33.5674L1073.11 6.56055C1080.13 11.3239 1087.91 11.3799 1094.84 9.59375C1099.73 8.33689 1104.24 6.1566 1107.87 4.0166L1079.18 33.5674Z" fill="#17499E" stroke="#17499E" stroke-width="2"/>
<path d="M1161.5 58.9043L1154.79 29.0428C1154.73 28.7714 1154.4 28.6751 1154.2 28.8747L1120.67 63.3991C1120.38 63.7056 1120.78 64.1766 1121.12 63.9314C1128.92 58.3965 1146.83 48.204 1160.95 59.2598C1161.21 59.4612 1161.58 59.2248 1161.5 58.9061V58.9043Z" fill="#0B897B"/>
<path d="M1134.47 5.09535L1141.18 34.9569C1141.24 35.2283 1141.58 35.3246 1141.77 35.125L1175.3 0.600545C1175.6 0.294121 1175.2 -0.176897 1174.85 0.0682422C1167.06 5.60314 1149.14 15.7957 1135.02 4.7399C1134.76 4.53854 1134.4 4.77492 1134.47 5.0936L1134.47 5.09535Z" fill="#17499E"/>
<path d="M1224.22 58.9043L1217.51 29.0428C1217.45 28.7714 1217.11 28.6751 1216.91 28.8747L1183.39 63.3991C1183.09 63.7056 1183.49 64.1766 1183.84 63.9314C1191.63 58.3965 1209.54 48.204 1223.66 59.2598C1223.92 59.4612 1224.29 59.2248 1224.22 58.9061V58.9043Z" fill="#0B897B"/>
<path d="M1197.18 5.09535L1203.89 34.9569C1203.95 35.2283 1204.29 35.3246 1204.48 35.125L1238.01 0.600545C1238.31 0.294121 1237.91 -0.176897 1237.56 0.0682422C1229.77 5.60314 1211.86 15.7957 1197.74 4.7399C1197.48 4.53854 1197.11 4.77492 1197.18 5.0936L1197.18 5.09535Z" fill="#17499E"/>
<path d="M1286.93 58.9043L1280.22 29.0428C1280.16 28.7714 1279.82 28.6751 1279.63 28.8747L1246.1 63.3991C1245.8 63.7056 1246.2 64.1766 1246.55 63.9314C1254.34 58.3965 1272.26 48.204 1286.38 59.2598C1286.64 59.4612 1287 59.2248 1286.93 58.9061V58.9043Z" fill="#0B897B"/>
<path d="M1259.89 5.09535L1266.6 34.9569C1266.66 35.2283 1267 35.3246 1267.2 35.125L1300.73 0.600545C1301.02 0.294121 1300.62 -0.176897 1300.28 0.0682422C1292.48 5.60314 1274.57 15.7957 1260.45 4.7399C1260.19 4.53854 1259.82 4.77492 1259.9 5.0936L1259.89 5.09535Z" fill="#17499E"/>
<path d="M1349.64 58.9043L1342.93 29.0428C1342.87 28.7714 1342.54 28.6751 1342.34 28.8747L1308.81 63.3991C1308.52 63.7056 1308.92 64.1766 1309.26 63.9314C1317.06 58.3965 1334.97 48.204 1349.09 59.2598C1349.35 59.4612 1349.72 59.2248 1349.64 58.9061V58.9043Z" fill="#0B897B"/>
<path d="M1322.61 5.09535L1329.32 34.9569C1329.38 35.2283 1329.72 35.3246 1329.91 35.125L1363.44 0.600545C1363.74 0.294121 1363.34 -0.176897 1362.99 0.0682422C1355.2 5.60314 1337.28 15.7957 1323.16 4.7399C1322.9 4.53854 1322.54 4.77492 1322.61 5.0936L1322.61 5.09535Z" fill="#17499E"/>
<path d="M1412.36 58.9043L1405.65 29.0428C1405.59 28.7714 1405.25 28.6751 1405.05 28.8747L1371.53 63.3991C1371.23 63.7056 1371.63 64.1766 1371.98 63.9314C1379.77 58.3965 1397.68 48.204 1411.8 59.2598C1412.06 59.4612 1412.43 59.2248 1412.36 58.9061V58.9043Z" fill="#0B897B"/>
<path d="M1385.32 5.09535L1392.03 34.9569C1392.09 35.2283 1392.43 35.3246 1392.62 35.125L1426.15 0.600545C1426.45 0.294121 1426.05 -0.176897 1425.7 0.0682422C1417.91 5.60314 1400 15.7957 1385.88 4.7399C1385.62 4.53854 1385.25 4.77492 1385.32 5.0936L1385.32 5.09535Z" fill="#17499E"/>
<path d="M1475.07 58.9043L1468.36 29.0428C1468.3 28.7714 1467.96 28.6751 1467.77 28.8747L1434.24 63.3991C1433.94 63.7056 1434.34 64.1766 1434.69 63.9314C1442.48 58.3965 1460.4 48.204 1474.52 59.2598C1474.77 59.4612 1475.14 59.2248 1475.07 58.9061V58.9043Z" fill="#0B897B"/>
<path d="M1448.03 5.09535L1454.74 34.9569C1454.8 35.2283 1455.14 35.3246 1455.34 35.125L1488.87 0.600545C1489.16 0.294121 1488.76 -0.176897 1488.42 0.0682422C1480.62 5.60314 1462.71 15.7957 1448.59 4.7399C1448.33 4.53854 1447.96 4.77492 1448.04 5.0936L1448.03 5.09535Z" fill="#17499E"/>
<path d="M1537.78 58.9043L1531.07 29.0428C1531.01 28.7714 1530.68 28.6751 1530.48 28.8747L1496.95 63.3991C1496.66 63.7056 1497.06 64.1766 1497.4 63.9314C1505.2 58.3965 1523.11 48.204 1537.23 59.2598C1537.49 59.4612 1537.86 59.2248 1537.78 58.9061V58.9043Z" fill="#0B897B"/>
<path d="M1510.75 5.09535L1517.46 34.9569C1517.52 35.2283 1517.86 35.3246 1518.05 35.125L1551.58 0.600545C1551.88 0.294121 1551.48 -0.176897 1551.13 0.0682422C1543.34 5.60314 1525.42 15.7957 1511.3 4.7399C1511.04 4.53854 1510.68 4.77492 1510.75 5.0936L1510.75 5.09535Z" fill="#17499E"/>
<path d="M1600.5 58.9043L1593.79 29.0428C1593.73 28.7714 1593.39 28.6751 1593.19 28.8747L1559.67 63.3991C1559.37 63.7056 1559.77 64.1766 1560.12 63.9314C1567.91 58.3965 1585.82 48.204 1599.94 59.2598C1600.2 59.4612 1600.57 59.2248 1600.5 58.9061V58.9043Z" fill="#0B897B"/>
<path d="M1573.46 5.09535L1580.17 34.9569C1580.23 35.2283 1580.57 35.3246 1580.76 35.125L1614.29 0.600545C1614.59 0.294121 1614.19 -0.176897 1613.84 0.0682422C1606.05 5.60314 1588.14 15.7957 1574.02 4.7399C1573.76 4.53854 1573.39 4.77492 1573.46 5.0936L1573.46 5.09535Z" fill="#17499E"/>
<path d="M1663.21 58.9043L1656.5 29.0428C1656.44 28.7714 1656.1 28.6751 1655.91 28.8747L1622.38 63.3991C1622.08 63.7056 1622.48 64.1766 1622.83 63.9314C1630.62 58.3965 1648.54 48.204 1662.66 59.2598C1662.91 59.4612 1663.28 59.2248 1663.21 58.9061V58.9043Z" fill="#0B897B"/>
<path d="M1636.17 5.09535L1642.88 34.9569C1642.94 35.2283 1643.28 35.3246 1643.48 35.125L1677.01 0.600545C1677.3 0.294121 1676.9 -0.176897 1676.55 0.0682422C1668.76 5.60314 1650.85 15.7957 1636.73 4.7399C1636.47 4.53854 1636.1 4.77492 1636.18 5.0936L1636.17 5.09535Z" fill="#17499E"/>
<path d="M1725.92 58.9043L1719.21 29.0428C1719.15 28.7714 1718.81 28.6751 1718.62 28.8747L1685.09 63.3991C1684.8 63.7056 1685.2 64.1766 1685.54 63.9314C1693.34 58.3965 1711.25 48.204 1725.37 59.2598C1725.63 59.4612 1726 59.2248 1725.92 58.9061V58.9043Z" fill="#0B897B"/>
<path d="M1698.89 5.09535L1705.6 34.9569C1705.66 35.2283 1706 35.3246 1706.19 35.125L1739.72 0.600545C1740.02 0.294121 1739.61 -0.176897 1739.27 0.0682422C1731.48 5.60314 1713.56 15.7957 1699.44 4.7399C1699.18 4.53854 1698.82 4.77492 1698.89 5.0936L1698.89 5.09535Z" fill="#17499E"/>
<path d="M1788.64 58.9043L1781.93 29.0428C1781.87 28.7714 1781.53 28.6751 1781.33 28.8747L1747.81 63.3991C1747.51 63.7056 1747.91 64.1766 1748.26 63.9314C1756.05 58.3965 1773.96 48.204 1788.08 59.2598C1788.34 59.4612 1788.71 59.2248 1788.64 58.9061V58.9043Z" fill="#0B897B"/>
<path d="M1761.6 5.09535L1768.31 34.9569C1768.37 35.2283 1768.71 35.3246 1768.9 35.125L1802.43 0.600545C1802.73 0.294121 1802.33 -0.176897 1801.98 0.0682422C1794.19 5.60314 1776.28 15.7957 1762.16 4.7399C1761.9 4.53854 1761.53 4.77492 1761.6 5.0936L1761.6 5.09535Z" fill="#17499E"/>
<path d="M1851.35 58.9043L1844.64 29.0428C1844.58 28.7714 1844.24 28.6751 1844.05 28.8747L1810.52 63.3991C1810.22 63.7056 1810.62 64.1766 1810.97 63.9314C1818.76 58.3965 1836.68 48.204 1850.8 59.2598C1851.05 59.4612 1851.42 59.2248 1851.35 58.9061V58.9043Z" fill="#0B897B"/>
<path d="M1824.31 5.09535L1831.02 34.9569C1831.08 35.2283 1831.42 35.3246 1831.62 35.125L1865.15 0.600545C1865.44 0.294121 1865.04 -0.176897 1864.7 0.0682422C1856.9 5.60314 1838.99 15.7957 1824.87 4.7399C1824.61 4.53854 1824.24 4.77492 1824.32 5.0936L1824.31 5.09535Z" fill="#17499E"/>
<path d="M1914.06 58.9043L1907.35 29.0428C1907.29 28.7714 1906.95 28.6751 1906.76 28.8747L1873.23 63.3991C1872.94 63.7056 1873.34 64.1766 1873.68 63.9314C1881.48 58.3965 1899.39 48.204 1913.51 59.2598C1913.77 59.4612 1914.14 59.2248 1914.06 58.9061V58.9043Z" fill="#0B897B"/>
<path d="M1887.03 5.09535L1893.74 34.9569C1893.8 35.2283 1894.14 35.3246 1894.33 35.125L1927.86 0.600545C1928.16 0.294121 1927.75 -0.176897 1927.41 0.0682422C1919.62 5.60314 1901.7 15.7957 1887.58 4.7399C1887.32 4.53854 1886.96 4.77492 1887.03 5.0936L1887.03 5.09535Z" fill="#17499E"/>
</svg>
