<svg width="161" height="61" viewBox="0 0 161 61" fill="none" xmlns="http://www.w3.org/2000/svg">
<path d="M60.0286 36.7784C60.0286 39.2019 59.1736 41.1047 57.4623 42.4878C55.7523 43.8709 53.5556 44.5625 50.8772 44.5625C47.2279 44.5625 44.3774 43.4928 42.3247 41.3547C42.0685 41.0986 41.9246 40.8839 41.8966 40.7131C41.8673 40.5424 41.9819 40.285 42.2381 39.9435L43.9054 38.0615C44.2189 37.8054 44.4469 37.6907 44.5896 37.72C44.7324 37.7493 44.9604 37.8907 45.2739 38.1481C46.0155 38.8043 46.8985 39.3312 47.9255 39.7301C48.9513 40.1301 49.8929 40.3289 50.7479 40.3289C52.2298 40.3289 53.3349 40.0301 54.0618 39.4312C54.7888 38.8324 55.1522 38.02 55.1522 36.9943C55.1522 35.9685 54.6961 35.1062 53.7837 34.4927C52.8714 33.8804 51.4748 33.2461 49.5928 32.5899C47.5401 31.9057 45.8789 31.0007 44.6104 29.8749C43.3419 28.7491 42.7077 27.1745 42.7077 25.1498C42.7077 22.869 43.5053 21.0443 45.1019 19.6758C46.6985 18.3073 48.6659 17.623 51.0028 17.623C53.9679 17.623 56.4475 18.2792 58.4442 19.5904C58.9004 19.9039 58.943 20.36 58.5723 20.9589L57.4599 23.0117C57.2038 23.4678 56.7756 23.5678 56.1768 23.3105C54.2948 22.3128 52.6555 21.8139 51.259 21.8139C48.75 21.8139 47.4962 22.9117 47.4962 25.1071C47.4962 25.7633 47.7877 26.3549 48.3731 26.8818C48.9574 27.4099 49.4562 27.7587 49.8697 27.9295C50.2832 28.1002 50.9882 28.3722 51.9871 28.7418C53.0409 29.1126 53.8045 29.398 54.2753 29.5968C54.7461 29.7968 55.4303 30.1384 56.328 30.6226C57.2257 31.108 57.8892 31.5922 58.3161 32.0765C58.7442 32.5619 59.1358 33.2169 59.4919 34.0438C59.8481 34.8708 60.0261 35.7831 60.0261 36.7808L60.0286 36.7784Z" fill="#17499E"/>
<path d="M79.8277 39.645L79.9985 43.5797V43.7078C79.9985 44.1359 79.7704 44.3494 79.3142 44.3494H76.0637C75.6076 44.3494 75.3648 44.1213 75.3368 43.6651L75.1233 39.6877C74.9806 37.2361 73.8829 36.0103 71.8302 36.0103C69.6066 36.0103 68.4943 37.2788 68.4943 39.8157V43.7493C68.4943 44.1493 68.2808 44.3481 67.8527 44.3481H64.3888C64.018 44.3481 63.8326 44.1493 63.8326 43.7493V17.7917C63.8326 17.3355 64.046 17.1074 64.4742 17.1074H67.81C68.2381 17.1074 68.4516 17.3209 68.4516 17.749V31.262C68.4516 31.4901 68.5162 31.6194 68.6443 31.6474C68.7724 31.6767 68.8931 31.6328 69.0078 31.5194L74.011 25.8319C74.2671 25.5758 74.6379 25.4465 75.1233 25.4465H79.2715C79.5277 25.4465 79.6923 25.5319 79.7631 25.7026C79.8338 25.8734 79.785 26.0307 79.613 26.1734C77.2749 28.797 75.5075 30.7497 74.3098 32.0316C74.2244 32.2024 74.1817 32.3024 74.1817 32.3305C74.1817 32.4732 74.2671 32.5439 74.4379 32.5439C77.8298 32.7147 79.6265 35.0821 79.8265 39.6425L79.8277 39.645Z" fill="#17499E"/>
<path d="M99.7126 26.3438L91.6736 51.2318C91.4455 51.8306 91.032 52.1295 90.4331 52.1295H87.6534C86.9399 52.1295 86.7265 51.7587 87.0119 51.0171L88.8512 45.0735C88.9939 44.5881 88.8792 44.3466 88.5097 44.3466H88.0389C87.4973 44.3466 87.1412 44.0477 86.9692 43.4489L82.0087 26.2158C81.8379 25.5889 82.0514 25.2754 82.6502 25.2754H86.0715C86.5557 25.2754 86.8985 25.5462 87.0973 26.0877L89.0646 34.084L90.3051 39.258C90.3331 39.4007 90.3831 39.4934 90.4551 39.5361C90.5258 39.5788 90.5978 39.5788 90.6685 39.5361C90.7393 39.4934 90.8039 39.4007 90.8613 39.258L92.3578 34.1267L94.8387 26.1731C95.0094 25.5742 95.3802 25.2754 95.951 25.2754H99.0296C99.315 25.2754 99.5284 25.3754 99.6711 25.5742C99.8138 25.7742 99.8272 26.0304 99.7138 26.3438H99.7126Z" fill="#17499E"/>
<path d="M120.109 28.4411C120.109 28.6691 120.067 28.8265 119.981 28.9119C119.896 28.9972 119.725 29.0265 119.468 28.9972C118.698 28.9399 117.999 28.9692 117.372 29.0826C117.059 29.1399 116.959 29.3107 117.073 29.5961C117.443 30.4231 117.63 31.2781 117.63 32.1624C117.63 34.2151 116.845 35.9251 115.278 37.2936C113.709 38.6621 111.799 39.3464 109.548 39.3464H108.521C107.979 39.3756 107.501 39.5891 107.089 39.9879C106.675 40.388 106.368 40.8722 106.169 41.4418C106.14 41.5845 106.155 41.6845 106.212 41.7406C106.269 41.798 106.34 41.8126 106.425 41.7833C107.822 41.4991 109.233 41.3552 110.659 41.3552C112.284 41.3552 113.73 41.526 115 41.8687C116.268 42.2102 117.351 42.8384 118.25 43.7507C119.148 44.663 119.598 45.8169 119.598 47.2146C119.598 48.327 119.192 49.4174 118.38 50.4859C117.567 51.5543 116.605 52.3459 115.494 52.8594C114.78 53.1436 114.311 53.1302 114.083 52.8167L112.757 50.8066C112.471 50.4359 112.614 50.0651 113.185 49.6943C113.584 49.4662 113.977 49.1308 114.361 48.6893C114.746 48.2465 114.938 47.7977 114.938 47.3427C114.938 46.5438 114.51 45.9815 113.655 45.6534C112.8 45.3253 111.83 45.1619 110.747 45.1619C109.378 45.1619 107.097 45.39 103.904 45.8461C103.305 45.9315 102.849 45.7742 102.536 45.3753C101.965 44.6057 101.681 43.536 101.681 42.1688C101.681 41.4845 101.902 40.7576 102.343 39.9879C102.785 39.2183 103.348 38.6194 104.032 38.1913C104.346 37.9925 104.375 37.7778 104.118 37.5498C102.549 36.2666 101.766 34.4712 101.766 32.1611C101.766 30.1938 102.543 28.5191 104.097 27.136C105.651 25.7541 107.468 25.0625 109.549 25.0625C111.402 25.0625 113.056 25.5479 114.51 26.5164C114.794 26.7164 115.051 26.7164 115.279 26.5164C116.59 25.576 117.959 25.1052 119.385 25.1052C119.869 25.1052 120.112 25.3479 120.112 25.8321V28.4411H120.109ZM112.07 34.5774C112.669 33.9931 112.968 33.2589 112.968 32.3746C112.968 31.4903 112.668 30.7426 112.07 30.1291C111.471 29.5168 110.702 29.2095 109.761 29.2095C108.734 29.2095 107.907 29.5229 107.28 30.1499C106.653 30.7768 106.34 31.5184 106.34 32.3734C106.34 33.2284 106.632 33.9553 107.217 34.5542C107.801 35.1531 108.578 35.4519 109.548 35.4519C110.631 35.4519 111.473 35.1604 112.07 34.5749V34.5774Z" fill="#17499E"/>
<path d="M134.264 26.1299L133.537 29.1231C133.48 29.4365 133.394 29.6293 133.281 29.7C133.166 29.772 132.982 29.7927 132.725 29.7646C132.154 29.6219 131.684 29.5512 131.314 29.5512C128.805 29.5512 127.551 31.077 127.551 34.1275V43.6631C127.551 44.1193 127.308 44.3473 126.824 44.3473H123.532C123.076 44.3473 122.848 44.1339 122.848 43.7058V26.0446C122.848 25.5884 123.076 25.3603 123.532 25.3603H126.44C126.895 25.3603 127.124 25.5738 127.124 26.0019V27.3277C127.124 27.4984 127.173 27.6058 127.274 27.6485C127.374 27.6912 127.48 27.6424 127.595 27.4984C128.793 25.8458 130.332 25.0176 132.214 25.0176C132.869 25.0176 133.382 25.0895 133.753 25.231C134.237 25.3737 134.408 25.6738 134.267 26.1287L134.264 26.1299Z" fill="#17499E"/>
<path d="M141.619 20.2297C141.619 20.9433 141.348 21.5702 140.807 22.1117C140.265 22.6533 139.623 22.9241 138.882 22.9241C138.14 22.9241 137.456 22.6606 136.914 22.1325C136.373 21.6056 136.102 20.9713 136.102 20.2297C136.102 19.4882 136.366 18.8612 136.894 18.3478C137.421 17.8343 138.07 17.5781 138.839 17.5781C139.609 17.5781 140.264 17.8343 140.807 18.3478C141.348 18.8612 141.619 19.4882 141.619 20.2297ZM136.488 43.7065V26.0453C136.488 25.5891 136.701 25.361 137.129 25.361H140.465C140.92 25.361 141.149 25.5891 141.149 26.0453V43.6638C141.149 44.12 140.936 44.348 140.508 44.348H137.172C136.716 44.348 136.488 44.1346 136.488 43.7065Z" fill="#17499E"/>
<path d="M157.227 43.0639C157.313 43.5774 157.057 43.9482 156.458 44.1762C155.774 44.4043 154.548 44.547 152.78 44.6044C148.988 44.6044 147.093 42.7516 147.093 39.045V29.6375C147.093 29.324 146.922 29.1667 146.58 29.1667H144.998C144.512 29.1667 144.271 28.9532 144.271 28.5251V26.0454C144.271 25.5893 144.499 25.3612 144.955 25.3612H146.451C146.85 25.3612 147.05 25.1624 147.05 24.7623V21.5545C147.05 21.0984 147.278 20.8129 147.735 20.6995L150.857 20.0153C151.427 19.9018 151.712 20.1006 151.712 20.6141V24.805C151.712 25.1758 151.911 25.3612 152.311 25.3612H155.689C156.146 25.3612 156.374 25.5893 156.374 26.0454V28.4824C156.374 28.9386 156.146 29.1667 155.689 29.1667H152.226C151.883 29.1667 151.712 29.3094 151.712 29.5948V38.2327C151.712 39.6585 152.324 40.3708 153.551 40.3708C154.206 40.3708 154.848 40.2854 155.476 40.1147C156.246 39.9719 156.687 40.2 156.802 40.7989L157.229 43.0651L157.227 43.0639Z" fill="#17499E"/>
<path d="M32.2705 48.9547L27.5967 28.1539C27.554 27.9649 27.3186 27.8978 27.1832 28.0369L3.82844 52.0856C3.62231 52.2991 3.90162 52.6272 4.14312 52.4564C9.57077 48.6009 22.0495 41.5011 31.8851 49.2023C32.0644 49.3425 32.3206 49.1779 32.2705 48.9559V48.9547Z" fill="#0B897B"/>
<path d="M13.4374 11.4731L18.1112 32.2738C18.1539 32.4629 18.3893 32.53 18.5247 32.3909L41.8807 8.34215C42.0868 8.1287 41.8075 7.80061 41.566 7.97136C36.1384 11.8268 23.6596 18.9267 13.824 11.2255C13.6447 11.0853 13.3886 11.2499 13.4386 11.4719L13.4374 11.4731Z" fill="#17499E"/>
</svg>
