<svg width="64" height="64" viewBox="0 0 64 64" fill="none" xmlns="http://www.w3.org/2000/svg">
<rect width="64" height="64" rx="12" fill="#0B897B"/>
<g clip-path="url(#clip0_2756_9541)">
<path d="M16.3047 29.75H18.0547V40.25H16.3047H16.25C15.3203 40.25 14.5 39.4844 14.5 38.5547C14.5 38.5547 14.5547 38.5547 14.5547 38.5V31.5C14.5547 30.5703 15.3203 29.75 16.25 29.75C16.25 29.75 16.25 29.75 16.3047 29.75ZM44.3047 27.125V42C44.25 43.9688 42.7188 45.5 40.8047 45.5H23.3047C21.3359 45.5 19.8047 43.9688 19.8047 42V27.125C19.8047 24.7188 21.7188 22.75 24.125 22.75C24.125 22.75 24.125 22.75 24.1797 22.75H30.3047V19.25C30.3047 18.3203 31.0703 17.5 32.0547 17.5C32.9844 17.5 33.8047 18.3203 33.8047 19.25V22.75H39.9297C42.3359 22.75 44.3047 24.7188 44.3047 27.125ZM28.9922 31.5C28.9922 30.2969 28.0078 29.3125 26.8047 29.3125C25.5469 29.3125 24.6172 30.2969 24.6172 31.5C24.6172 32.7578 25.5469 33.6875 26.8047 33.6875C28.0078 33.6875 28.9922 32.7578 28.9922 31.5ZM28.5547 38.5H25.0547V40.25H28.5547V38.5ZM33.8047 38.5H30.3047V40.25H33.8047V38.5ZM39.4922 31.5C39.4922 30.2969 38.5078 29.3125 37.3047 29.3125C36.0469 29.3125 35.1172 30.2969 35.1172 31.5C35.1172 32.7578 36.0469 33.6875 37.3047 33.6875C38.5078 33.6875 39.4922 32.7578 39.4922 31.5ZM39.0547 38.5H35.5547V40.25H39.0547V38.5ZM49.5547 31.5V38.5V38.5547C49.5547 39.4844 48.7344 40.3047 47.8047 40.3047V40.25H46.0547V29.75H47.8047C48.7344 29.75 49.5547 30.5703 49.5547 31.5Z" fill="white"/>
</g>
<defs>
<clipPath id="clip0_2756_9541">
<rect width="36" height="28" fill="white" transform="translate(14.5 17.5)"/>
</clipPath>
</defs>
</svg>
