<svg width="274" height="555" viewBox="0 0 274 555" fill="none" xmlns="http://www.w3.org/2000/svg">
<path d="M327.508 255.047C327.555 255.06 327.588 255.083 327.607 255.103C327.621 255.116 327.641 255.141 327.655 255.203L379.474 485.846L379.475 485.845C379.484 485.891 379.484 485.918 379.482 485.929C379.481 485.941 379.479 485.951 379.475 485.961C379.464 485.985 379.434 486.027 379.378 486.062C379.322 486.098 379.277 486.105 379.261 486.104C379.254 486.104 379.249 486.103 379.242 486.101C379.236 486.098 379.213 486.09 379.175 486.061V486.06C323.836 442.734 261.096 441.125 204.872 455.599C148.698 470.06 98.7716 500.625 68.5771 522.072L68.5762 522.073C68.509 522.121 68.4674 522.135 68.4531 522.14C68.4345 522.133 68.3798 522.11 68.3193 522.039C68.2448 521.951 68.2366 521.88 68.2363 521.871C68.2376 521.868 68.2543 521.824 68.3271 521.749L68.3281 521.748L327.297 255.104C327.343 255.058 327.375 255.047 327.394 255.042C327.421 255.035 327.461 255.034 327.508 255.047Z" stroke="#0B897B" stroke-width="5"/>
<path d="M486.545 32.8594C486.561 32.8649 486.617 32.8875 486.681 32.9619C486.718 33.0064 486.739 33.0463 486.751 33.0762L486.765 33.1289C486.763 33.1321 486.746 33.1761 486.673 33.251V33.252L227.699 299.899C227.655 299.943 227.625 299.953 227.606 299.958C227.579 299.965 227.539 299.966 227.492 299.953C227.446 299.94 227.412 299.917 227.393 299.897C227.386 299.891 227.378 299.881 227.369 299.865L227.345 299.797L175.526 69.1543H175.525C175.516 69.1083 175.516 69.082 175.518 69.0713C175.519 69.0593 175.522 69.0494 175.526 69.0391C175.537 69.0149 175.566 68.9733 175.622 68.9375C175.678 68.9016 175.724 68.8952 175.74 68.8955C175.747 68.8956 175.751 68.8971 175.758 68.8994C175.764 68.9015 175.787 68.9094 175.825 68.9395V68.9404C231.163 112.266 293.904 113.875 350.128 99.4014C406.302 84.9399 456.228 54.3753 486.423 32.9277L486.424 32.9268C486.489 32.8808 486.529 32.8645 486.545 32.8594Z" stroke="white" stroke-width="5"/>
</svg>
