<svg width="549" height="461" viewBox="0 0 549 461" fill="none" xmlns="http://www.w3.org/2000/svg">
<g clip-path="url(#clip0_2756_9696)">
<path d="M441.156 230.685C466.754 225.191 493.063 242.203 498.557 267.802L539.125 456.838C544.83 483.421 527.607 508.746 502.008 514.239L155.441 588.614C128.858 594.319 103.745 578.08 98.04 551.497L57.4717 362.461C51.9781 336.862 68.0055 310.765 94.5888 305.06L118.218 299.989L103.005 229.1C85.4679 147.381 137.839 65.0783 220.543 47.3297C302.261 29.7924 384.776 83.1481 402.313 164.867L417.526 235.756L441.156 230.685ZM338.761 252.659L323.548 181.77C315.307 143.373 275.843 117.855 237.446 126.095C198.063 134.547 173.53 173.799 181.77 212.197L196.984 283.085L338.761 252.659Z" fill="#0B897B"/>
</g>
<defs>
<clipPath id="clip0_2756_9696">
<rect width="451.128" height="515.575" fill="white" transform="translate(0 94.6593) rotate(-12.1123)"/>
</clipPath>
</defs>
</svg>
