<svg width="17" height="17" viewBox="0 0 17 17" fill="none" xmlns="http://www.w3.org/2000/svg">
<path d="M15.4688 0.84375C15.8125 0.9375 16.0625 1.21875 16.0625 1.5625C16.0625 9.59375 9.56252 16.0625 1.56252 16.0625C1.18752 16.0625 0.906275 15.8438 0.812525 15.5L0.0625248 12.25C2.47955e-05 11.9062 0.156275 11.5312 0.500025 11.375L4.00002 9.875C4.31252 9.75 4.65627 9.84375 4.87502 10.0938L6.43752 12C8.87502 10.8438 10.8438 8.84375 11.9688 6.46875L10.0625 4.90625C9.81252 4.6875 9.71877 4.34375 9.84377 4.03125L11.3438 0.53125C11.5 0.1875 11.875 0 12.2188 0.09375L15.4688 0.84375Z" fill="white"/>
</svg>
