<svg width="19" height="14" viewBox="0 0 19 14" fill="none" xmlns="http://www.w3.org/2000/svg">
<g clip-path="url(#clip0_2756_9646)">
<path d="M13.0312 5C13.0312 7.78125 10.0938 10 6.53126 10C5.25001 10 4.03126 9.71875 3.03126 9.21875C2.34376 9.625 1.40626 10 0.281257 10C0.156257 10 0.0937567 9.96875 0.0312567 9.875C6.71856e-06 9.78125 0.0312567 9.65625 0.0937567 9.59375C0.0937567 9.59375 0.781257 8.84375 1.21876 7.875C0.468757 7.0625 0.0312567 6.09375 0.0312567 5C0.0312567 2.25 2.93751 0 6.53126 0C10.0938 0 13.0312 2.25 13.0312 5ZM16.8438 11.875C17.25 12.8438 17.9375 13.5938 17.9375 13.5938C18.0312 13.6562 18.0312 13.7812 18 13.875C17.9688 13.9688 17.875 14 17.7812 14C16.625 14 15.6875 13.625 15 13.2188C14 13.7188 12.8125 14 11.5312 14C8.81251 14 6.50001 12.75 5.53126 10.9688C5.84376 11 6.18751 11 6.53126 11C10.6562 11 14.0312 8.3125 14.0312 5C14.0312 4.8125 14 4.59375 13.9688 4.375C16.3438 5.125 18.0312 6.9375 18.0312 9C18.0312 10.0938 17.5625 11.0625 16.8438 11.875Z" fill="white"/>
</g>
<defs>
<clipPath id="clip0_2756_9646">
<rect width="19" height="14" fill="white"/>
</clipPath>
</defs>
</svg>
