<svg width="573" height="480" viewBox="0 0 573 480" fill="none" xmlns="http://www.w3.org/2000/svg">
<g clip-path="url(#clip0_2756_9691)">
<path d="M372.786 283.528C367.092 284.88 360.045 280.538 358.693 274.844L328.26 146.726C326.908 141.031 331.024 133.036 336.718 131.683L373.73 122.892C379.425 121.539 387.645 126.604 388.998 132.299L419.43 260.417C420.783 266.111 415.493 273.383 409.798 274.736L372.786 283.528ZM463.893 261.887C458.198 263.239 451.152 258.898 449.799 253.204L397.726 33.9781C396.374 28.2839 400.49 20.2882 406.184 18.9356L443.196 10.1442C448.891 8.79143 457.111 13.8568 458.464 19.5509L510.537 238.776C511.89 244.471 506.599 251.743 500.904 253.095L463.893 261.887ZM190.573 326.809C184.878 328.162 177.832 323.82 176.479 318.126L160.474 250.745C159.121 245.05 163.238 237.055 168.932 235.702L205.943 226.911C211.639 225.558 219.859 230.623 221.212 236.318L237.217 303.699C238.569 309.393 233.279 316.665 227.584 318.018L190.573 326.809ZM281.679 305.168C275.985 306.521 268.938 302.179 267.586 296.485L222.726 107.628C221.374 101.934 225.49 93.9386 231.184 92.586L268.196 83.7946C273.891 82.4418 282.112 87.5072 283.464 93.2013L328.324 282.058C329.676 287.752 324.386 295.024 318.691 296.377L281.679 305.168ZM542.854 307.296C550.446 305.492 559.842 311.281 561.645 318.873L568.858 349.242C570.887 357.784 564.873 366.23 557.281 368.034L116.932 472.63C99.8494 476.688 83.407 466.558 79.3494 449.475L3.60679 130.602C1.8034 123.01 6.6432 113.839 15.1844 111.81L45.5533 104.597C53.1456 102.794 62.5412 108.582 64.3446 116.175L132.874 404.679L542.854 307.296Z" fill="white"/>
</g>
<defs>
<clipPath id="clip0_2756_9691">
<rect width="499.422" height="374.566" fill="white" transform="translate(0 115.417) rotate(-13.3619)"/>
</clipPath>
</defs>
</svg>
